# xmcd
#
# Track frame offsets:
#	150
#	14656
#	28430
#	41639
#	55258
#	69143
#	84485
#	98384
#	112307
#	126625
#	140758
#	154636
#	167445
#	181600
#	195334
#	209015
#	222525
#	233991
#	247263
#	260242
#
# Disc length: 3663 seconds
#
# Revision: 5
# Processed by: cddbd v1.5.2PL0 Copyright (c) Steve Scherf et al.
# Submitted via: EZCDAudioConverter 3.1.0.1
#
DISCID=300e4d14
DTITLE=Charley Patton - The Definitive Charley Patton [1929-1934]-cd1
DYEAR=1930
DGENRE=Blues
TTITLE0=Mississippi Boweavil Blues
TTITLE1=Screamin' And Hollerin' The Blues
TTITLE2=Down The Dirt Road Blues
TTITLE3=Pony Blues
TTITLE4=Banty Rooster Blues
TTITLE5=It Won't Be Long
TTITLE6=Pea Vine Blues
TTITLE7=Tom Rushen Blues
TTITLE8=A Spoonful Blues
TTITLE9=Shake It And Break It
TTITLE10=Prayer Of Death Part One
TTITLE11=Prayer Of Death Part Two
TTITLE12=Lord I'm Discouraged
TTITLE13=I'm Goin' Home
TTITLE14=Going To Move To Alabama
TTITLE15=Elder Greene Blues
TTITLE16=Circle Round The Moon
TTITLE17=Devil Sent The Rain Blues
TTITLE18=Mean Black Cat Blues
TTITLE19=Frankie And Albert
EXTD=
EXTT0=
EXTT1=
EXTT2=
EXTT3=
EXTT4=
EXTT5=
EXTT6=
EXTT7=
EXTT8=
EXTT9=
EXTT10=
EXTT11=
EXTT12=
EXTT13=
EXTT14=
EXTT15=
EXTT16=
EXTT17=
EXTT18=
EXTT19=
PLAYORDER=
